PathFileType	4	(X/Y/Z)	C:/Users/beibeiliu/ov580/test_trc/User3\sequence.24_training_dense_left.trc
DataRate	CameraRate	NumFrames	NumMarkers	Units	OrigDataRate	OrigDataStartFrame	OrigNumFrames
120	120	7	19	mm	120	76	100
Frame#	Time	ThumbCMC			ThumbMCP			ThumbIP			ThumbTip			IndexMCP			IndexPIP			IndexTip			MiddleMCP			MiddlePIP			MiddleTip			RingMCP			RingPIP			RingTip			PinkyMCP			PinkyPIP			PinkyTip			BackHand1			BackHand2			BackHand3	
		X0	Y0	Z0	X1	Y1	Z1	X2	Y2	Z2	X3	Y3	Z3	X4	Y4	Z4	X5	Y5	Z5	X6	Y6	Z6	X7	Y7	Z7	X8	Y8	Z8	X9	Y9	Z9	X10	Y10	Z10	X11	Y11	Z11	X12	Y12	Z12	X13	Y13	Z13	X14	Y14	Z14	X15	Y15	Z15	X16	Y16	Z16	X17	Y17	Z17	X18	Y18	Z18	
75	0.625	-139.702	5.80765	4.21681	-109.953	-10.9647	-6.131	-86.7654	-24.4572	-18.7891	-76.0253	-48.0878	-25.6305	-133.88	-31.2106	-61.2496	-101.495	-44.1615	-59.9492	-83.6797	-41.2894	-35.1059	-135.874	-48.9156	-59.3644	-106.545	-62.5933	-52.1779	-91.5398	-56.9451	-14.5741	-143.863	-66.5048	-43.84	-113.982	-73.9802	-38.1589	-101.061	-65.5746	-5.52695	-151.504	-75.8995	-25.9758	-125.658	-83.4587	-18.7485	-108.724	-64.7511	-2.04026	-184.931	-37.7577	-18.6192	-197.449	-25.0165	12.8974	-180.042	-4.39452	-8.4191	
76	0.633333	-156.007	13.8259	-0.138605	-123.458	11.4373	-8.84152	-98.2015	0.146708	-22.1622	-77.4511	-13.9376	-28.5992	-138.265	-18.7854	-60.8727	-103.402	-19.3454	-63.8074	-84.3184	-14.6315	-40.7105	-130.061	-41.3267	-57.0779	-98.5733	-41.1589	-49.7479	-86.3161	-25.3717	-17.8804	-133.497	-55.1773	-41.2325	-100.3	-55.8063	-32.4878	-91.5781	-40.9162	-7.5871	-132.978	-70.7704	-20.7959	-107.966	-65.32	-16.0171	-96.1295	-40.1727	2.23	-181.916	-45.8907	-9.16212	-195.871	-41.9636	14.3828	-188.429	-14.5022	-11.5812	
77	0.641667	-176.603	12.0012	1.60291	-145.555	21.3852	-13.541	-118.145	25.9564	-27.8466	-96.2423	17.0228	-33.9414	-145.324	-15.7779	-59.7731	-114.271	-2.24927	-66.3991	-94.9102	13.8088	-46.6425	-133.516	-29.4879	-57.0618	-104.649	-16.2147	-55.2762	-93.8196	1.50476	-22.7252	-126.21	-43.9109	-39.5429	-97.2896	-30.6743	-34.1699	-92.2802	-9.15418	-10.4508	-122.633	-54.612	-21.8889	-99.4027	-39.8286	-19.5239	-97.5474	-17.3904	-5.80064	-175.808	-53.5186	-7.41978	-189.486	-48.2568	20.3907	-193.729	-24.7463	-8.84135	
78	0.65	-195.205	8.91395	-1.1734	-168.43	23.5795	-21.375	-146.305	33.2006	-36.4737	-122.268	28.8958	-43.2475	-155.186	-13.2688	-63.2161	-134.539	6.25437	-73.731	-119.556	28.7859	-59.7934	-139.913	-27.8522	-56.688	-115.123	0.0245487	-61.2955	-110.437	24.7032	-36.1828	-131.083	-36.049	-41.545	-104.224	-14.6229	-43.423	-102.512	9.13186	-25.3161	-123.986	-43.2508	-21.3725	-102.739	-21.0411	-27.8705	-103.365	2.56813	-15.0236	-171.169	-51.6879	-3.33822	-182.594	-52.0709	21.3292	-197.878	-31.1488	-6.5582	
79	0.658333	-205.552	-2.01748	-2.34727	-189.915	17.6469	-25.8087	-172.542	31.118	-48.2316	-146.695	29.5739	-56.707	-170.315	-21.0763	-64.3967	-151.52	4.99216	-78.8666	-145.236	29.9016	-72.0525	-150.925	-29.0116	-62.491	-136.899	-2.84158	-73.9835	-128.572	27.1371	-52.9777	-138.168	-33.634	-51.2897	-119.508	-10.6188	-55.5536	-120.911	16.7134	-41.2876	-129.14	-39.0537	-29.398	-112.97	-19.391	-40.1291	-116.004	7.57535	-30.3556	-168.662	-54.9829	-1.19812	-180.772	-56.3215	22.0776	-201.435	-42.7613	-4.19576	
80	0.666667	-212.654	-13.679	0.506616	-206.048	5.40495	-26.3852	-190.635	10.8352	-53.4927	-168.23	12.1096	-64.6365	-186.372	-36.2832	-68.1879	-173.122	-11.7043	-84.7606	-170.14	17.6775	-79.5247	-167.851	-43.7626	-65.3248	-154.543	-17.7627	-82.6625	-150.48	15.0008	-69.748	-155.5	-46.8811	-52.7815	-141.797	-25.3771	-68.8477	-141.753	7.27537	-55.1807	-137.478	-48.8293	-37.1723	-132.638	-30.492	-52.2715	-130.09	-1.7354	-46.3255	-171.15	-65.7352	-3.57144	-182.308	-58.9847	26.4662	-207.121	-51.9208	3.17695	
81	0.675	-223.03	-20.4712	4.81678	-213.934	-10.8474	-27.1954	-206.238	-8.42317	-56.1654	-185.147	-11.1087	-71.2881	-206.895	-56.1887	-59.8449	-194.479	-38.8381	-82.8401	-185.421	-7.43049	-82.693	-190.688	-64.3873	-62.4818	-180.348	-43.3945	-86.0131	-165.202	-9.86809	-79.0669	-171.14	-67.7443	-49.7674	-158.236	-50.8464	-71.4149	-157.496	-14.6402	-64.1914	-158.175	-65.8037	-38.2565	-150.37	-51.9546	-57.7435	-143.691	-21.7854	-55.6343	-181.116	-75.1007	5.43735	-182.599	-66.6322	32.8872	-214.32	-60.2899	11.662	
